<?xml version="1.0" standalone="no"?>
<!DOCTYPE svg PUBLIC "-//W3C//DTD SVG 20010904//EN"
 "http://www.w3.org/TR/2001/REC-SVG-20010904/DTD/svg10.dtd">
<svg version="1.0" xmlns="http://www.w3.org/2000/svg"
 width="464.000000pt" height="464.000000pt" viewBox="0 0 464.000000 464.000000"
 preserveAspectRatio="xMidYMid meet">
<metadata>
Created by potrace 1.11, written by Peter Selinger 2001-2013
</metadata>
<g transform="translate(0.000000,464.000000) scale(0.100000,-0.100000)"
fill="#000000" stroke="none">
<path d="M660 3835 l0 -145 145 0 145 0 0 145 0 145 -145 0 -145 0 0 -145z"/>
<path d="M990 3835 l0 -145 145 0 145 0 0 145 0 145 -145 0 -145 0 0 -145z"/>
<path d="M1320 3835 l0 -145 145 0 145 0 0 145 0 145 -145 0 -145 0 0 -145z"/>
<path d="M1650 3835 l0 -145 145 0 145 0 0 145 0 145 -145 0 -145 0 0 -145z"/>
<path d="M1990 3835 l0 -145 145 0 145 0 0 145 0 145 -145 0 -145 0 0 -145z"/>
<path d="M2320 3835 l0 -145 145 0 145 0 0 145 0 145 -145 0 -145 0 0 -145z"/>
<path d="M660 3505 l0 -145 145 0 145 0 0 145 0 145 -145 0 -145 0 0 -145z"/>
<path d="M990 3505 l0 -145 145 0 145 0 0 145 0 145 -145 0 -145 0 0 -145z"/>
<path d="M2320 3505 l0 -145 145 0 145 0 0 145 0 145 -145 0 -145 0 0 -145z"/>
<path d="M2650 3504 l0 -146 23 6 c12 3 77 6 145 6 l122 0 0 140 0 140 -145 0
-145 0 0 -146z"/>
<path d="M1531 3313 c8 -21 539 -1480 591 -1626 l10 -28 121 3 120 3 22 60
c287 786 410 1114 416 1108 4 -5 103 -270 220 -590 l212 -583 121 0 121 0 306
840 306 840 -165 -2 -164 -3 -194 -530 c-107 -291 -197 -540 -201 -552 -6 -17
-54 102 -202 510 -107 292 -199 542 -205 555 -9 22 -12 22 -159 20 l-150 -3
-201 -548 c-110 -301 -203 -544 -206 -540 -4 5 -94 247 -200 538 -106 292
-195 536 -197 543 -4 9 -47 12 -169 12 l-164 0 11 -27z"/>
<path d="M660 3175 l0 -145 145 0 145 0 0 145 0 145 -145 0 -145 0 0 -145z"/>
<path d="M990 3175 l0 -145 145 0 145 0 0 145 0 145 -145 0 -145 0 0 -145z"/>
<path d="M2320 3175 l0 -145 98 0 98 0 47 133 c26 72 47 138 47 145 0 9 -36
12 -145 12 l-145 0 0 -145z"/>
<path d="M660 2845 l0 -145 145 0 145 0 0 145 0 145 -145 0 -145 0 0 -145z"/>
<path d="M990 2845 l0 -145 145 0 145 0 0 145 0 145 -145 0 -145 0 0 -145z"/>
<path d="M2320 2845 l0 -145 38 0 37 0 50 137 c28 75 52 140 53 145 2 4 -37 8
-87 8 l-91 0 0 -145z"/>
<path d="M2797 2724 c-13 -13 -7 -24 14 -24 11 0 19 5 17 12 -5 14 -22 21 -31
12z"/>
<path d="M660 2505 l0 -145 145 0 145 0 0 145 0 145 -145 0 -145 0 0 -145z"/>
<path d="M990 2505 l0 -145 145 0 145 0 0 145 0 145 -145 0 -145 0 0 -145z"/>
<path d="M2321 2578 l0 -73 24 60 c30 76 30 85 0 85 -24 0 -25 -2 -24 -72z"/>
<path d="M2716 2518 c-27 -72 -50 -138 -53 -145 -4 -10 24 -13 136 -13 l141 0
-1 28 c0 15 -19 79 -43 142 l-43 115 -45 3 -45 3 -47 -133z"/>
<path d="M660 2175 l0 -145 145 0 145 0 0 145 0 145 -145 0 -145 0 0 -145z"/>
<path d="M990 2175 l0 -145 145 0 145 0 0 145 0 145 -145 0 -145 0 0 -145z"/>
<path d="M2659 2273 c-8 -22 -4 -44 25 -122 19 -53 54 -152 77 -221 23 -68 47
-129 54 -135 8 -5 109 -272 226 -593 l212 -582 121 0 121 0 306 840 306 840
-165 -2 -164 -3 -194 -530 c-107 -291 -197 -540 -201 -553 -6 -17 -27 29 -95
215 -48 131 -134 369 -193 528 -58 160 -110 302 -116 318 l-11 27 -149 0 -149
0 -11 -27z"/>
<path d="M2571 2127 c-17 -46 -31 -86 -31 -90 0 -4 16 -7 35 -7 l35 0 0 90 c0
50 -2 90 -4 90 -2 0 -17 -37 -35 -83z"/>
<path d="M2651 2093 c-1 -61 0 -63 24 -63 l25 0 -19 48 c-10 26 -21 54 -24 62
-3 8 -6 -13 -6 -47z"/>
<path d="M660 1845 l0 -145 145 0 145 0 0 145 0 145 -145 0 -145 0 0 -145z"/>
<path d="M990 1845 l0 -145 145 0 145 0 0 145 0 145 -145 0 -145 0 0 -145z"/>
<path d="M1320 1845 l0 -145 145 0 145 0 0 145 0 145 -145 0 -145 0 0 -145z"/>
<path d="M1650 1845 l0 -145 145 0 145 0 0 145 0 145 -145 0 -145 0 0 -145z"/>
<path d="M2515 1973 c-13 -33 -95 -264 -95 -269 0 -2 43 -4 95 -4 l95 0 0 145
0 145 -44 0 c-32 0 -46 -5 -51 -17z"/>
<path d="M1990 1827 l0 -127 49 0 48 0 -44 122 c-25 68 -46 125 -49 127 -2 2
-4 -53 -4 -122z"/>
<path d="M868 1548 c19 -19 17 -414 -2 -425 -22 -12 323 -4 372 9 59 15 82 47
82 113 0 47 -4 56 -31 79 l-31 26 26 31 c54 64 25 147 -58 168 -64 16 -374 15
-358 -1z m282 -88 c11 -11 20 -24 20 -30 0 -5 -9 -19 -20 -30 -15 -15 -33 -20
-75 -20 l-55 0 0 43 c0 24 3 47 7 50 3 4 28 7 55 7 35 0 54 -6 68 -20z m4
-166 c23 -22 20 -60 -6 -78 -14 -10 -44 -16 -75 -16 l-53 0 0 55 0 55 59 0
c41 0 65 -5 75 -16z"/>
<path d="M1353 1548 c9 -7 55 -69 102 -138 l85 -125 0 -72 c0 -59 -3 -74 -19
-85 -16 -11 -2 -13 91 -13 82 0 105 3 93 11 -11 8 -15 31 -15 88 l0 77 82 122
c45 67 89 127 97 134 13 10 -2 12 -76 13 -81 0 -93 -2 -93 -17 0 -18 -78 -143
-89 -143 -11 1 -86 128 -85 144 2 14 -13 16 -94 16 -79 0 -93 -2 -79 -12z"/>
<path d="M1928 1548 c8 -8 12 -57 12 -152 0 -116 4 -148 19 -182 32 -70 100
-104 210 -104 83 0 132 13 171 47 54 45 63 74 68 233 2 80 9 151 14 158 8 9
-11 12 -88 12 -76 0 -95 -3 -86 -12 8 -8 12 -56 12 -149 0 -123 -2 -139 -21
-163 -16 -21 -29 -26 -64 -26 -36 0 -48 5 -69 31 -25 29 -26 35 -26 163 0 89
4 136 12 144 9 9 -9 12 -82 12 -73 0 -91 -3 -82 -12z"/>
<path d="M870 900 c22 -14 27 -198 7 -239 l-15 -31 39 0 c38 0 39 1 24 17 -14
13 -16 34 -13 130 2 88 6 116 18 123 11 7 2 10 -30 10 -31 0 -41 -3 -30 -10z"/>
<path d="M1084 894 c23 -23 23 -225 0 -248 -14 -15 -9 -16 57 -16 124 0 189
49 189 142 0 55 -30 105 -75 124 -20 8 -67 14 -110 14 -70 0 -75 -1 -61 -16z
m165 -22 c36 -26 51 -59 51 -113 0 -32 -6 -55 -21 -72 -25 -33 -93 -53 -126
-38 -22 10 -23 15 -23 124 0 63 3 117 8 121 12 13 84 -1 111 -22z"/>
<path d="M1522 893 c-5 -10 -24 -58 -41 -108 -18 -49 -41 -105 -51 -122 l-19
-33 31 0 c23 0 28 3 20 13 -7 8 -6 24 4 52 7 22 14 41 14 43 0 1 20 2 46 2 42
0 46 -2 60 -37 9 -20 13 -44 11 -55 -4 -15 1 -18 29 -18 l35 0 -20 28 c-11 15
-39 77 -61 137 -23 61 -43 112 -45 113 -2 2 -8 -5 -13 -15z m23 -79 c23 -55
20 -64 -20 -64 -19 0 -35 3 -35 7 0 11 32 93 36 93 2 0 11 -16 19 -36z"/>
<path d="M1763 899 c15 -9 17 -26 17 -129 0 -103 -2 -120 -17 -129 -14 -8 -7
-10 32 -10 39 0 46 2 33 10 -14 8 -18 23 -18 70 l0 60 83 -3 82 -3 -3 -55 c-2
-30 -8 -60 -14 -67 -8 -10 -2 -13 31 -13 39 0 41 1 27 16 -13 12 -16 39 -16
129 0 98 2 115 18 124 13 8 7 10 -28 11 -25 0 -40 -4 -33 -8 7 -4 13 -32 15
-62 l3 -55 -82 -3 -83 -3 0 54 c0 29 5 58 12 65 9 9 2 12 -32 12 -36 -1 -41
-3 -27 -11z"/>
<path d="M2208 895 c-39 -22 -68 -75 -68 -126 0 -177 253 -187 277 -12 7 52
-18 108 -59 133 -39 24 -110 26 -150 5z m134 -22 c75 -67 55 -205 -33 -227
-120 -30 -196 170 -91 237 33 22 95 17 124 -10z"/>
</g>
</svg>
